<svg width="120" height="120" viewBox="0 0 120 120" fill="none" xmlns="http://www.w3.org/2000/svg">
<path d="M0 10C0 4.47715 4.47715 0 10 0H110C115.523 0 120 4.47715 120 10V110C120 115.523 115.523 120 110 120H10C4.47715 120 0 115.523 0 110V10Z" fill="#DDDDDD"/>
<path d="M75.9485 96.4584C78.5401 94.9529 81.7303 95.9593 84.0114 97.9034C85.966 99.5693 88.4211 100.598 91.7335 100.598C96.4058 100.598 99.3906 98.2628 99.3906 95.0362C99.3906 91.1695 96.324 89.8 91.1811 87.5505L88.362 86.3409C80.2248 82.8742 74.8192 78.5313 74.8192 69.3503C74.8192 60.8931 81.2631 54.4551 91.3334 54.4551C96.8107 54.4551 101.112 55.9113 104.493 59.5119C106.38 61.5212 105.555 64.6501 103.235 66.1394V66.1394C100.718 67.7557 97.5678 66.5019 94.9285 65.0935C93.8883 64.5384 92.7159 64.2895 91.3334 64.2895C88.0306 64.2895 85.9372 66.3848 85.9372 69.1218C85.9372 72.5048 88.0325 73.8742 92.8705 75.9695L95.6895 77.177C105.271 81.2856 110.68 85.4741 110.68 94.8913C110.68 105.044 102.705 110.606 91.9942 110.606C83.9798 110.606 78.1362 107.683 74.3509 103.379C72.4201 101.184 73.4206 97.9269 75.9485 96.4584V96.4584ZM35.878 97.6925C38.5577 96.0703 41.6901 97.3773 44.1736 99.2862C45.1811 100.061 46.4079 100.528 48.0324 100.528C51.7372 100.528 54.0744 99.0782 54.0744 93.4422V60.7373C54.0744 57.6234 56.5987 55.0991 59.7125 55.0991V55.0991C62.8264 55.0991 65.3506 57.6234 65.3506 60.7373V93.5943C65.3506 105.27 58.505 110.585 48.5124 110.585C41.8797 110.585 37.2979 108.063 34.2789 104.494C32.4424 102.322 33.4452 99.1654 35.878 97.6925V97.6925Z" fill="#202023"/>
</svg>
