<svg width="120" height="140" viewBox="0 0 120 140" fill="none" xmlns="http://www.w3.org/2000/svg">
<path d="M60 0C57.3688 0 54.7423 0.690311 52.4023 2.07031L7.40234 28.5547C2.83234 31.2347 0 36.1944 0 41.4844V99.8242C0 105.314 2.9925 110.358 7.8125 112.988L22.5586 121.035C24.8286 122.275 27.2861 122.871 29.7461 122.871C32.3861 122.871 34.9928 122.162 37.3828 120.762C41.9828 118.032 44.7266 113.212 44.7266 107.852V44.4141H34.7266V107.852C34.7266 110.422 33.0252 111.718 32.2852 112.148C31.5552 112.578 29.5938 113.476 27.3438 112.246L12.6172 104.219C11.0072 103.339 10 101.654 10 99.8242V41.4844C10 39.7244 10.9409 38.068 12.4609 37.168L57.4609 10.6836C59.0209 9.76359 60.9791 9.77359 62.5391 10.6836L107.539 37.168C109.049 38.068 110 39.7244 110 41.4844V99.8633C110 101.663 109.002 103.358 107.402 104.258L62.4023 128.77C60.9023 129.57 59.0977 129.57 57.5977 128.77L48.8086 123.965C47.1086 126.065 45 127.875 42.5 129.375C41.7 129.875 40.8977 130.266 40.0977 130.566L52.793 137.559C55.093 138.759 57.5 139.375 60 139.375C62.5 139.375 64.907 138.759 67.207 137.559L112.207 112.969C117.007 110.369 120 105.363 120 99.8633V41.4844C120 36.1944 117.177 31.2347 112.617 28.5547L67.6172 2.07031C65.2722 0.690313 62.6312 0 60 0ZM74.5117 42.9492C58.7117 42.9492 50.7031 48.4564 50.7031 59.3164C50.7031 71.6164 64.8697 73.4464 71.6797 74.3164C72.6597 74.4464 73.5287 74.5575 74.2188 74.6875L77.207 75.2148C87.607 76.9548 90 78.1344 90 81.4844C90 83.1044 89.9917 88.0078 74.5117 88.0078C61.3817 88.0078 58.6914 84.1117 58.6914 78.2617H48.6914C48.6914 87.2817 53.1717 98.0078 74.5117 98.0078C95.5717 98.0078 100 89.0244 100 81.4844C100 68.9044 87.7772 66.842 78.8672 65.332L75.9961 64.8438C75.1661 64.6937 74.1192 64.5541 72.9492 64.4141C66.5892 63.5941 60.7031 62.4159 60.7031 59.3359C60.7031 57.1059 60.6917 52.9592 74.5117 52.9492C83.7017 52.9492 88.3789 55.9736 88.3789 61.9336H98.3789C98.3789 52.7636 92.0917 42.9492 74.5117 42.9492Z" fill="#DDDDDD"/>
</svg>
