<svg width="120" height="120" viewBox="0 0 120 120" fill="none" xmlns="http://www.w3.org/2000/svg">
<path d="M120 60C120 63.6293 119.677 67.1829 119.06 70.6334C114.042 98.6988 89.5078 120 60 120C37.7681 120 18.36 107.909 7.99594 89.9438C5.46609 85.5626 3.47766 80.8336 2.11594 75.8449C0.734766 70.7977 0 65.4832 0 60C0 26.8629 26.8629 0 60 0C87.3502 0 110.424 18.2988 117.651 43.3223C119.18 48.6171 120 54.213 120 60Z" fill="#DDDDDD"/>
<path d="M30.5093 41.7749H8.41221L2.11597 75.8451C3.47768 80.8338 5.46612 85.5627 7.99596 89.9439H10.0458L12.4849 76.7488H24.627C39.4113 76.7488 43.3861 63.4755 44.3388 56.9561C45.2939 50.4393 40.5258 41.7749 30.5093 41.7749ZM33.7151 58.0555C33.1739 61.7512 30.4432 69.2767 22.0629 69.2767H13.8661L17.5299 49.4474H25.8736C34.0067 49.4474 34.2563 54.3601 33.7151 58.0555Z" fill="#202023"/>
<path d="M117.651 43.3227C115.773 42.3529 113.535 41.7749 110.948 41.7749H88.8513L79.9492 89.9441H90.4846L92.9238 76.749H105.066C111.641 76.749 116.079 74.1238 119.059 70.6339C119.677 67.1832 120 63.6297 120 60.0004C120 54.2134 119.18 48.6175 117.651 43.3227ZM114.154 58.0558C113.613 61.7514 110.882 69.2769 102.499 69.2769H94.3052L97.9689 49.4476H106.313C114.446 49.4476 114.695 54.3604 114.154 58.0558Z" fill="#202023"/>
<path d="M72.4778 41.9343C68.1899 41.9343 62.4691 41.9343 59.6816 41.9343L62.0835 28.938H51.5915L42.6892 77.1059H53.1813L58.3007 49.406C60.1921 49.406 62.7046 49.406 65.0062 49.406C69.4572 49.406 72.4778 50.3599 71.8417 54.4931C71.2059 58.6263 67.5496 76.9078 67.5496 76.9078H78.2006C78.2006 76.9078 82.3338 56.5598 82.9696 50.8366C83.6057 45.1136 78.3597 41.9343 72.4778 41.9343Z" fill="#202023"/>
</svg>
