<svg width="121" height="120" viewBox="0 0 121 120" fill="none" xmlns="http://www.w3.org/2000/svg">
<path d="M121 60C121 79.7681 111.359 97.3029 96.4888 108.235C90.2634 112.81 83.122 116.228 75.3877 118.168C70.6245 119.366 65.6387 120 60.5 120C55.3613 120 50.3731 119.366 45.6097 118.168C37.8756 116.228 30.734 112.81 24.5086 108.232C9.63793 97.3003 0 79.7658 0 60C0 26.8629 27.0868 0 60.5 0C93.9133 0 121 26.8629 121 60Z" fill="#DDDDDD"/>
<path d="M96.5508 93.7837C96.2667 91.8955 95.8914 89.9509 95.4272 87.9625C95.0172 86.2164 94.5408 84.4358 94.0001 82.6286C92.5776 77.8825 90.7035 72.9503 88.4317 67.9642C87.4365 65.7845 86.3648 63.5952 85.2214 61.4083C84.2139 59.481 83.1521 57.5511 82.0333 55.6335C80.9172 53.7135 79.7665 51.8376 78.5837 50.0083C77.2477 47.934 75.8723 45.921 74.4647 43.9764C71.2495 39.5315 67.8789 35.454 64.4439 31.8587C63.1377 30.4897 61.8214 29.1918 60.5003 27.9697C58.9965 26.5738 57.4852 25.2784 55.9763 24.0906C46.1259 16.3347 37.3078 14.0057 31.1417 17.5347C24.9757 21.066 22.6001 29.804 24.4473 42.1445C24.7287 44.0326 25.1066 45.9772 25.5734 47.9657C25.9784 49.7118 26.4549 51.4923 26.9982 53.2996C28.4207 58.0457 30.2947 62.9804 32.5692 67.964C33.562 70.1437 34.6335 72.3304 35.7768 74.5173C36.7843 76.4472 37.8487 78.3744 38.9649 80.2944C40.0811 82.2144 41.2318 84.0904 42.4146 85.9197C43.7529 87.9965 45.1283 90.0095 46.5335 91.9539C49.7488 96.3988 53.1193 100.474 56.5543 104.069C57.8608 105.438 59.1792 106.738 60.5003 107.96C62.0041 109.356 63.5154 110.649 65.0217 111.837C68.6444 114.69 72.1262 116.808 75.3883 118.168C83.1223 116.228 90.2639 112.81 96.4891 108.235C97.358 104.263 97.3902 99.3967 96.5508 93.7837ZM91.0044 107.344C90.2857 110.425 88.9646 112.536 87.0756 113.616C85.189 114.698 82.6851 114.776 79.6353 113.856C76.3312 112.854 72.4741 110.665 68.4787 107.518C67.1354 106.46 65.7896 105.309 64.4437 104.072C63.125 102.857 61.8063 101.559 60.4977 100.185C58.2505 97.8269 56.028 95.2455 53.86 92.4758C52.4129 90.6269 50.9881 88.6947 49.5978 86.6889C47.5802 83.7819 45.632 80.7208 43.7799 77.537C41.9254 74.3533 40.2264 71.1501 38.6979 67.964C37.641 65.7672 36.6654 63.5779 35.7766 61.4106C34.4406 58.1633 33.2973 54.9625 32.3614 51.8547C31.8181 50.0425 31.3417 48.2645 30.9439 46.5233C30.5339 44.7503 30.2007 43.0164 29.9487 41.334C29.1982 36.3308 29.2154 31.9227 29.9932 28.5847C30.7119 25.5039 32.0353 23.3929 33.9219 22.3129C34.9417 21.73 36.1394 21.4361 37.5049 21.4361C38.6704 21.4361 39.9594 21.6491 41.362 22.0752C44.6661 23.0744 48.5232 25.2662 52.5186 28.4108C53.8618 29.4688 55.2101 30.6198 56.5536 31.8615C57.8747 33.0737 59.191 34.3717 60.4972 35.7433C62.7468 38.1015 64.9693 40.6829 67.1399 43.4551C68.587 45.3041 70.0118 47.2363 71.4021 49.2421C73.4171 52.149 75.3656 55.2102 77.2174 58.3914C79.0719 61.5751 80.7709 64.7783 82.2994 67.9644C83.3563 70.1636 84.3319 72.3531 85.2207 74.5204C86.5567 77.7676 87.7 80.9662 88.6359 84.0737C89.1792 85.8859 89.6556 87.6639 90.0557 89.4051C90.4632 91.1781 90.7966 92.912 91.0486 94.5944C91.7996 99.5976 91.7823 104.006 91.0044 107.344Z" fill="#202023"/>
<path d="M101.072 49.9131C99.2818 49.2128 97.3952 48.5638 95.4247 47.9661C93.6962 47.4444 91.9034 46.9621 90.0536 46.5238C85.1987 45.3728 79.9539 44.5156 74.4645 43.9768C72.0667 43.7392 69.6195 43.5655 67.1402 43.4551C64.9523 43.3548 62.7348 43.3032 60.5001 43.3032C58.2654 43.3032 56.0477 43.3545 53.8574 43.4551C51.3757 43.5653 48.9285 43.7417 46.5307 43.9768C41.0413 44.5156 35.7988 45.3728 30.944 46.5238C29.0945 46.9621 27.3017 47.4446 25.5729 47.9661C23.6024 48.5612 21.7158 49.2128 19.9254 49.9131C8.2281 54.4925 1.78296 60.9041 1.78296 67.9644C1.78296 75.0247 8.2281 81.4363 19.9256 86.0183C21.7161 86.7186 23.6001 87.3676 25.5706 87.9652C27.2991 88.487 29.0919 88.9693 30.9416 89.4053C35.7965 90.5586 41.0413 91.4134 46.5333 91.9546C48.9311 92.1896 51.3783 92.3635 53.86 92.4763C56.0479 92.5766 58.2654 92.6256 60.5001 92.6256C62.7348 92.6256 64.9499 92.5766 67.1378 92.4763C69.6195 92.3635 72.0643 92.1896 74.4645 91.9546C79.9539 91.4157 85.2013 90.5586 90.0562 89.4053C91.9057 88.967 93.6985 88.487 95.4273 87.9629C97.3954 87.3678 99.282 86.7188 101.072 86.0183C112.772 81.4363 119.215 75.0249 119.215 67.9644C119.215 60.9041 112.772 54.4925 101.072 49.9131ZM110.14 74.4737C107.616 76.8125 103.774 79.0288 99.0298 80.8876C97.4323 81.512 95.7529 82.0949 93.9996 82.6288C92.2784 83.1554 90.4882 83.6378 88.6361 84.0737C85.453 84.8256 82.0872 85.4427 78.5832 85.9203C76.2471 86.2412 73.8493 86.4983 71.4022 86.687C67.8537 86.9687 64.2064 87.1107 60.4999 87.1107C56.7933 87.1107 53.146 86.9687 49.5976 86.6895C47.1504 86.4985 44.7502 86.2414 42.4141 85.9206C38.9101 85.4429 35.5443 84.8258 32.3612 84.0739C30.5091 83.638 28.7189 83.1556 26.9978 82.629C25.2444 82.0951 23.5653 81.5122 21.9675 80.8878C17.2239 79.029 13.3815 76.8128 10.8577 74.4739C8.52658 72.3163 7.34376 70.127 7.34376 67.9646C7.34376 65.8023 8.52658 63.6128 10.8577 61.4553C13.3815 59.1165 17.2237 56.9003 21.9675 55.0414C23.5651 54.417 25.2444 53.8342 26.9978 53.3003C28.7189 52.7736 30.5091 52.2913 32.3612 51.8553C35.5443 51.1035 38.9101 50.4863 42.4141 50.0087C44.7502 49.6878 47.1504 49.4307 49.5976 49.2397C53.146 48.9606 56.7933 48.8185 60.4999 48.8185C64.2064 48.8185 67.8537 48.9606 71.4022 49.2423C73.8493 49.431 76.2471 49.6881 78.5832 50.0089C82.0872 50.4866 85.453 51.1037 88.6361 51.8556C90.4882 52.2915 92.2784 52.7738 93.9996 53.3005C95.7529 53.8344 97.432 54.4173 99.0298 55.0417C103.773 56.9005 107.616 59.1167 110.14 61.4556C112.471 63.6132 113.654 65.8025 113.654 67.9649C113.654 70.127 112.471 72.3163 110.14 74.4737Z" fill="#202023"/>
<path d="M89.8564 17.5347C83.6904 14.0057 74.8722 16.3347 65.0219 24.0906C63.5155 25.2784 62.0042 26.5738 60.5004 27.9697C59.1794 29.1918 57.8606 30.4921 56.5545 31.8611C53.1194 35.4561 49.7489 39.5312 46.5313 43.9761C45.1263 45.9205 43.7507 47.9338 42.415 50.008C41.2321 51.8373 40.0814 53.7133 38.9653 55.6333C37.8491 57.5533 36.7849 59.4805 35.7772 61.4104C34.6338 63.5973 33.5621 65.7866 32.5695 67.9637C30.2951 72.9498 28.421 77.882 26.9986 82.6281C26.4552 84.438 25.9788 86.2183 25.5711 87.9644C25.107 89.953 24.7291 91.8951 24.4476 93.7832C23.608 99.3939 23.6401 104.26 24.5093 108.232C30.7347 112.809 37.876 116.228 45.6103 118.168C48.8724 116.809 52.3542 114.69 55.9769 111.837C57.4856 110.649 58.9969 109.354 60.5009 107.96C61.822 106.738 63.1383 105.44 64.4445 104.071C67.8769 100.476 71.2501 96.3986 74.4653 91.9537C75.8703 90.009 77.2459 87.996 78.5843 85.9194C79.7671 84.0901 80.9178 82.2142 82.0339 80.2942C83.1525 78.3765 84.2143 76.4493 85.222 74.5194C86.3654 72.3325 87.4371 70.1432 88.4323 67.9635C90.7041 62.9797 92.5784 58.0452 94.0006 53.2991C94.5414 51.4919 95.0181 49.7113 95.4255 47.9652C95.8922 45.9765 96.2675 44.0322 96.5516 42.144C98.398 29.804 96.0227 21.066 89.8564 17.5347ZM88.6367 51.8547C87.7009 54.9625 86.5575 58.1608 85.2215 61.408C84.3325 63.5753 83.3571 65.7648 82.3003 67.964C80.7717 71.1501 79.0727 74.3533 77.2183 77.537C75.3662 80.7182 73.4179 83.7794 71.403 86.6863C70.0103 88.6944 68.5855 90.6266 67.1384 92.4756C64.9703 95.2454 62.7479 97.8266 60.4983 100.185C59.1921 101.556 57.8758 102.854 56.5547 104.069C55.2114 105.308 53.8632 106.459 52.5196 107.517C48.5243 110.664 44.6669 112.853 41.3631 113.855C38.3135 114.776 35.8093 114.697 33.9227 113.615C32.0361 112.535 30.7125 110.424 29.994 107.343C29.2163 104.005 29.1988 99.5971 29.9496 94.5939C30.2015 92.9115 30.5347 91.1776 30.9422 89.4046C31.3423 87.6634 31.8187 85.8855 32.362 84.0733C33.2979 80.9655 34.4412 77.7646 35.7772 74.5173C36.6663 72.3501 37.6416 70.1605 38.6985 67.964C40.227 64.7779 41.926 61.5747 43.7805 58.3909C45.6326 55.2072 47.5808 52.146 49.5984 49.239C50.9887 47.2333 52.4109 45.3011 53.858 43.4547C56.0286 40.6825 58.2511 38.1013 60.4981 35.7428C61.8069 34.3689 63.1256 33.0709 64.444 31.8587C65.7899 30.6196 67.1356 29.4686 68.4791 28.4106C72.4745 25.2662 76.3318 23.0743 79.6357 22.075C81.0383 21.6489 82.3272 21.4358 83.4928 21.4358C84.8583 21.4358 86.0584 21.7297 87.0758 22.3126C88.9647 23.3926 90.286 25.5036 91.0045 28.5845C91.7822 31.9225 91.7997 36.3306 91.0489 41.3338C90.797 43.0161 90.4638 44.7501 90.0537 46.5231C89.6565 48.2643 89.1798 50.0422 88.6367 51.8547Z" fill="#202023"/>
<path d="M60.5002 78.9088C66.595 78.9088 71.5358 74.0088 71.5358 67.9644C71.5358 61.92 66.595 57.02 60.5002 57.02C54.4054 57.02 49.4646 61.92 49.4646 67.9644C49.4646 74.0088 54.4054 78.9088 60.5002 78.9088Z" fill="#202023"/>
</svg>
