<svg width="120" height="120" viewBox="0 0 120 120" fill="none" xmlns="http://www.w3.org/2000/svg">
<path d="M11.7188 0H108.281C114.753 0 120 5.24672 120 11.7188V108.281C120 114.753 114.753 120 108.281 120H11.7188C5.24672 120 0 114.753 0 108.281V11.7188C0 5.24672 5.24672 0 11.7188 0Z" fill="#DDDDDD"/>
<path d="M11.7188 0H108.281C114.753 0 120 5.24672 120 11.7188V108.281C120 114.753 114.753 120 108.281 120H11.7188C5.24672 120 0 114.753 0 108.281V11.7188C0 5.24672 5.24672 0 11.7188 0Z" fill="#DDDDDD"/>
<path fill-rule="evenodd" clip-rule="evenodd" d="M74.2826 95.49V107.223C76.1899 108.201 78.4458 108.934 81.0502 109.423C83.6545 109.912 86.3993 110.156 89.2849 110.156C94.2581 110.156 99.7024 109.445 103.957 106.691C108.191 103.951 110.156 99.3928 110.156 94.4634C110.156 90.7985 109.019 87.2719 106.451 84.6007C102.601 80.595 97.1899 78.9705 92.3292 76.5891C89.8943 75.3961 86.5338 73.5441 86.5338 70.4107C86.5338 69.6042 86.7417 68.8772 87.1575 68.2294C88.8291 65.6248 92.5418 65.0944 95.374 65.0944C98.5889 65.0944 101.981 65.8141 104.966 67.1475C106.005 67.612 106.965 68.1497 107.845 68.7609V57.7978C106.06 57.1134 104.11 56.6062 101.995 56.2762C99.8796 55.9462 97.4524 55.7812 94.7138 55.7812C91.9259 55.7812 89.2849 56.0808 86.7907 56.6796C84.2965 57.2784 82.1018 58.2134 80.2064 59.4844C78.3112 60.7556 76.8136 62.3749 75.7132 64.3427C74.6128 66.3103 74.0625 68.663 74.0625 71.4007C74.0625 74.8962 75.0712 77.8784 77.0887 80.3473C79.106 82.8159 82.1688 84.9059 86.2772 86.617C89.0409 87.7472 91.9146 88.8626 94.4018 90.5402C96.1256 91.7027 97.6847 93.3239 97.6847 95.5266C97.6847 97.1252 96.7809 98.4806 95.4656 99.3216C93.5196 100.566 91.0275 100.843 88.7712 100.843C86.228 100.843 83.7094 100.397 81.2149 99.5048C78.7209 98.6128 76.41 97.2745 74.2826 95.49ZM54.5578 66.5817H69.6094V56.9531H27.6562V66.5817H42.6342V109.453H54.5578V66.5817Z" fill="#202023"/>
</svg>
