<svg width="120" height="121" viewBox="0 0 120 121" fill="none" xmlns="http://www.w3.org/2000/svg">
<path d="M60.8293 64.1377L46.6414 105.366C50.8794 106.609 55.36 107.294 60.0027 107.294C65.5079 107.294 70.7916 106.341 75.704 104.613C75.5778 104.41 75.4627 104.195 75.3687 103.961L60.8293 64.1377Z" fill="#DDDDDD"/>
<path d="M12.7092 59.9986C12.7092 78.7191 23.5884 94.8956 39.3639 102.56L16.8062 40.7534C14.183 46.6348 12.7092 53.1434 12.7092 59.9986Z" fill="#DDDDDD"/>
<path d="M91.9235 57.613C91.9235 51.7688 89.8261 47.7225 88.0269 44.5696C85.6289 40.6743 83.3818 37.3767 83.3818 33.4801C83.3818 29.1331 86.6782 25.0869 91.3234 25.0869C91.5337 25.0869 91.7317 25.1128 91.9371 25.1227C83.5253 17.4175 72.317 12.7104 60.0037 12.7104C43.4795 12.7104 28.9438 21.1866 20.4912 34.027C21.5999 34.0604 22.643 34.084 23.534 34.084C28.4811 34.084 36.1393 33.4838 36.1393 33.4838C38.6908 33.3304 38.9878 37.076 36.4425 37.3767C36.4425 37.3767 33.8798 37.6773 31.0301 37.8283L48.2484 89.0527L58.5968 58.0127L51.2268 37.8271C48.6803 37.6761 46.2686 37.3754 46.2686 37.3754C43.722 37.2269 44.019 33.3316 46.5668 33.4826C46.5668 33.4826 54.3785 34.0827 59.0224 34.0827C63.9683 34.0827 71.629 33.4826 71.629 33.4826C74.1805 33.3316 74.4787 37.0747 71.9297 37.3754C71.9297 37.3754 69.3646 37.6761 66.5173 37.8271L83.6094 88.6629L88.3264 72.901C90.3693 66.3601 91.9235 61.6605 91.9235 57.613Z" fill="#DDDDDD"/>
<path d="M101.496 37.311C101.699 38.8157 101.815 40.4355 101.815 42.174C101.815 46.9726 100.92 52.3676 98.2205 59.1127L83.7739 100.876C97.832 92.677 107.292 77.4447 107.292 60.0011C107.293 51.7774 105.191 44.0462 101.496 37.311Z" fill="#DDDDDD"/>
<path d="M60 0C26.8626 0 0 26.8638 0 60.0012C0 93.1387 26.8626 120.002 60 120.002C93.1374 120.002 120 93.1387 120 60.0012C120 26.8638 93.1374 0 60 0ZM60.0025 112.599C30.998 112.599 7.40457 89.0058 7.40457 59.9988C7.40457 30.9967 30.9967 7.40333 60.0025 7.40333C89.0033 7.40333 112.595 30.998 112.595 59.9988C112.597 89.0033 89.002 112.599 60.0025 112.599Z" fill="#DDDDDD"/>
</svg>
