<svg width="65" height="56" viewBox="0 0 65 56" fill="none" xmlns="http://www.w3.org/2000/svg">
<path d="M62.2972 53.6308H62.912L61.7339 51.8487C62.4543 51.8487 62.8362 51.391 62.8416 50.8304C62.8416 50.8087 62.8416 50.7843 62.8389 50.7627C62.8389 49.9989 62.3785 49.6333 61.4333 49.6333H59.9058V53.6308H60.4799V51.8893H61.1868L62.2972 53.6308ZM61.1462 51.4371H60.4799V50.0856H61.3249C61.761 50.0856 62.2593 50.156 62.2593 50.7275C62.2593 51.3829 61.7556 51.4371 61.1435 51.4371" fill="#202023"/>
<path d="M46.8298 46.8302H38.6858V34.0766C38.6858 31.0352 38.6317 27.1216 34.45 27.1216C30.2088 27.1216 29.5588 30.4339 29.5588 33.8572V46.8302H21.4175V20.6027H29.2365V24.1858H29.3448C30.94 21.4612 33.9029 19.8335 37.0581 19.95C45.3131 19.95 46.8325 25.3802 46.8325 32.4408L46.8298 46.8302ZM12.2281 17.0168C9.61729 17.0168 7.50208 14.9016 7.50208 12.2908C7.50208 9.67995 9.61729 7.56474 12.2281 7.56474C14.839 7.56474 16.9542 9.67995 16.9542 12.2908C16.9542 14.9016 14.839 17.0168 12.2281 17.0168ZM16.2988 46.8302H8.14667V20.6027H16.2988V46.8302ZM50.8896 0.00307827H4.05438C1.84167 -0.0212967 0.0270833 1.75266 0 3.96537V50.9929C0.0270833 53.2083 1.84167 54.9822 4.05438 54.9579H50.8896C53.1077 54.9849 54.9304 53.211 54.9602 50.9929V3.96266C54.9277 1.74454 53.105 -0.0294219 50.8896 0.00036981" fill="#202023"/>
<path d="M61.2165 47.8539C59.1473 47.8728 57.4844 49.5683 57.5061 51.6374C57.525 53.7066 59.2204 55.3695 61.2896 55.3478C63.3588 55.3289 65.0217 53.6335 65 51.5643C64.9811 49.5222 63.329 47.8728 61.2896 47.8539H61.2165ZM61.3032 54.9172C59.4886 54.947 57.9069 53.5035 57.8771 51.6889C57.8473 49.8743 59.2936 48.3793 61.1082 48.3495C62.9227 48.3197 64.4177 49.766 64.4475 51.5805C64.4475 51.5995 64.4475 51.6158 64.4475 51.6347C64.4854 53.4087 63.0771 54.8793 61.3032 54.9172H61.2192H61.3032Z" fill="#202023"/>
</svg>