<svg width="65" height="53" viewBox="0 0 65 53" fill="none" xmlns="http://www.w3.org/2000/svg">
<path d="M58.3456 13.2399C58.3835 13.8114 58.3835 14.3856 58.3835 14.9624C58.3835 32.5856 44.9665 52.9062 20.4398 52.9062V52.8954C13.195 52.9062 6.09917 50.8316 0 46.9181C1.05354 47.0454 2.1125 47.1077 3.17417 47.1104C9.18125 47.1158 15.015 45.1008 19.7356 41.3904C14.0292 41.282 9.02417 37.5608 7.27729 32.1279C9.27604 32.5124 11.3344 32.4339 13.2979 31.9004C7.07417 30.6437 2.6 25.1756 2.6 18.8272C2.6 18.7704 2.6 18.7135 2.6 18.6593C4.45521 19.6939 6.52979 20.2654 8.65312 20.3277C2.79229 16.4141 0.983125 8.61953 4.52292 2.52578C11.2937 10.8566 21.2848 15.9212 32.0071 16.4602C30.9319 11.8289 32.4025 6.97557 35.8637 3.71745C41.2344 -1.3336 49.6817 -1.0736 54.7327 4.29703C57.72 3.70932 60.5827 2.61245 63.2017 1.06057C62.205 4.14807 60.1223 6.76974 57.3381 8.43807C59.9842 8.1212 62.5652 7.41432 65 6.3364C63.2098 9.01495 60.9565 11.3522 58.3456 13.2399Z" fill="#DDDDDD"/>
</svg>