<svg width="65" height="46" viewBox="0 0 65 46" fill="none" xmlns="http://www.w3.org/2000/svg">
<path d="M63.6404 7.15C62.8929 4.33604 60.691 2.11792 57.8933 1.365C52.826 4.84288e-07 32.5 0 32.5 0C32.5 0 12.174 4.84288e-07 7.10396 1.365C4.30896 2.11792 2.10708 4.33333 1.35958 7.15C0 12.2525 0 22.8963 0 22.8963C0 22.8963 0 33.54 1.35958 38.6425C2.10708 41.4565 4.30896 43.6746 7.10667 44.4275C12.174 45.7925 32.5 45.7925 32.5 45.7925C32.5 45.7925 52.826 45.7925 57.896 44.4275C60.691 43.6746 62.8929 41.4592 63.6431 38.6425C65 33.54 65 22.8963 65 22.8963C65 22.8963 65 12.2525 63.6404 7.15ZM25.8537 32.5623V13.2302L42.8404 22.8963L25.8537 32.5623Z" fill="#DDDDDD"/>
</svg>
